<svg width="468" height="735" viewBox="0 0 468 735" fill="none" xmlns="http://www.w3.org/2000/svg">
<path fill-rule="evenodd" clip-rule="evenodd" d="M98.295 488.981C102.999 489.365 108.663 490.325 111.735 491.765C110.871 498.388 111.063 496.661 106.455 499.444C103.287 493.013 101.079 496.277 98.295 488.981ZM79.2877 353.817C70.072 360.441 88.6954 359.289 74.1039 370.905L74.3919 375.705L79.2877 377.337L76.5038 383.96C76.5038 383.96 74.0079 386.072 73.9119 386.072L68.1521 390.872L66.3281 394.904C73.1439 396.152 69.784 396.536 77.2718 395.096C79.0957 391.832 79.4797 390.968 83.3196 389.624C82.8396 391.736 83.1276 391.928 81.8796 394.04C79.1917 398.648 81.1116 395.384 78.9037 397.208C74.5838 404.12 73.7199 402.776 67.4801 405.176L68.632 410.359C73.1439 410.551 75.6398 409.687 78.9037 408.727C77.8477 413.143 78.9997 410.359 77.2718 413.431C74.9678 417.847 72.1839 417.751 66.5201 419.863C65.9441 421.303 65.3682 426.103 63.0642 427.639L62.8722 431.383C70.552 431.671 72.9519 427.447 78.9037 427.351C75.0638 428.695 72.7599 433.591 70.168 435.895C65.0802 440.598 61.7203 438.966 61.8163 447.99C67.9601 447.894 69.016 446.166 74.2959 445.014C71.7999 453.078 69.688 447.702 63.8322 459.03C62.1043 462.198 64.0242 459.318 61.7203 462.102C59.7044 464.694 58.3604 464.502 58.1684 468.821C64.7922 469.781 67.0001 468.053 72.8559 466.806C70.168 471.605 69.304 472.085 64.1202 475.349C60.8563 477.557 58.4564 477.941 59.0324 482.933C68.0561 485.429 69.112 481.973 76.4078 481.493C72.3759 493.877 62.0083 497.332 55.8645 500.116C45.1128 505.204 51.6406 510.868 62.0083 509.14C70.744 507.796 68.5361 505.972 73.1439 509.524C69.208 511.348 63.4482 514.132 60.8563 517.492C71.416 518.164 84.4715 516.052 94.6472 517.108L103.863 517.684L99.159 511.924C109.623 510.772 112.215 511.636 116.054 503.956C112.215 501.46 114.231 503.284 111.447 500.308L123.254 498.388C119.894 508.084 114.806 511.156 107.511 514.996L109.815 517.684L145.141 517.78L142.166 512.308C148.117 511.54 150.229 514.9 160.213 514.036C158.389 502.804 150.229 507.316 145.429 496.565C152.245 498.292 153.397 501.46 160.117 499.252C160.501 498.1 160.885 498.772 160.213 496.469C158.965 492.533 158.293 494.837 155.797 490.133C148.405 476.117 149.173 484.565 144.661 475.445C150.997 476.405 151.381 478.997 157.813 478.133C157.621 469.205 154.069 472.757 146.293 462.39C145.237 460.95 145.045 460.47 143.99 459.51C141.59 457.11 143.798 458.55 141.782 457.878C146.773 458.166 151.093 461.814 154.261 461.142C157.621 460.47 154.741 462.006 157.333 459.894C155.221 456.63 154.261 455.766 154.069 449.91C147.733 449.718 141.014 443.478 139.478 437.239C147.541 440.598 144.757 443.094 152.917 439.83C150.517 435.607 147.925 433.975 143.894 431.479C142.07 430.327 137.174 429.175 138.422 422.551L139.478 419.959C146.965 424.087 142.358 427.255 151.285 426.199C151.669 419.287 148.501 418.903 144.181 414.679L141.782 407.96C144.661 406.328 145.333 406.616 147.157 403.928L143.798 397.496C135.446 388.28 146.101 394.52 143.318 386.552C142.07 383 139.67 380.024 139.574 377.241C139.286 370.809 142.166 376.761 140.054 368.793C139.19 365.241 135.254 355.065 132.95 353.529C132.278 355.545 129.878 363.993 129.782 365.145C129.398 368.601 130.934 365.337 129.014 370.905C123.734 386.456 132.95 373.593 126.998 384.536C124.31 389.432 122.774 388.088 122.006 394.904L129.11 394.424C127.766 399.992 124.694 403.544 120.95 404.888L121.046 406.616C123.158 409.495 121.526 407.864 125.462 409.879C125.75 409.975 126.23 410.167 126.422 410.263C126.614 410.359 127.094 410.455 127.382 410.551C124.598 417.079 114.998 417.367 120.95 422.263C124.598 425.335 124.118 422.551 125.846 426.583C125.654 426.871 125.174 426.967 125.078 427.447L118.838 432.631C114.614 435.703 114.327 433.975 114.71 439.446C122.39 441.174 122.006 439.638 128.342 437.911C126.614 449.046 114.039 449.43 111.831 456.918C118.742 460.47 121.238 459.03 127.766 455.766C126.998 460.758 124.694 463.83 120.374 467.478C116.246 470.933 112.599 471.221 111.543 477.269C117.11 479.765 121.046 476.309 125.846 474.869C124.598 479.285 119.606 484.181 114.135 487.349C109.047 485.429 98.199 476.885 96.0871 468.533C100.215 469.493 106.647 471.797 108.759 469.493C111.735 466.134 109.431 471.413 107.991 462.294C107.895 462.006 107.895 461.526 107.799 461.334C107.031 455.958 98.295 456.63 93.8792 445.878L106.647 448.758C108.567 442.998 108.087 445.686 104.919 442.806L99.159 437.143C99.063 436.855 98.775 436.183 98.775 436.375L97.4311 433.879C94.6472 429.271 93.5912 430.519 91.9593 425.623C96.1831 427.831 93.6872 428.407 98.775 429.175C104.439 425.239 100.887 427.447 107.991 427.351C106.455 424.471 102.135 421.975 101.271 421.207C99.735 418.231 99.927 419.191 97.0471 417.655C96.7591 417.367 96.4711 416.983 96.2791 416.791L93.5912 412.759C92.6312 410.935 92.1513 409.879 91.0953 407.768L99.543 410.071C104.343 410.935 106.455 410.071 105.303 405.08C100.407 402.872 97.4311 400.664 95.7991 395.864L94.0712 393.176L101.943 391.832C100.983 385.496 96.9511 385.784 92.9192 381.56L96.6631 379.544C99.159 378.105 97.9111 379.832 99.927 377.241C98.1031 373.785 100.215 377.241 97.5271 373.881C94.7432 370.329 93.9752 370.329 92.0553 365.241C94.4552 364.281 95.8951 364.857 99.063 362.553C96.3751 357.465 95.0312 356.409 92.8232 350.745C91.6713 346.618 89.7513 346.618 87.5434 343.93L85.8155 346.426C81.3036 354.681 87.0634 354.489 79.2877 353.817Z" fill="#1A2229"/>
<path fill-rule="evenodd" clip-rule="evenodd" d="M222.612 354.106C227.219 357.562 230.579 358.138 232.787 363.897C230.195 363.321 221.172 360.825 218.196 358.81C216.084 357.466 214.452 355.066 212.916 353.146C210.42 349.786 210.9 351.514 210.324 347.002C216.084 348.058 218.388 350.938 222.612 354.106ZM138.23 319.355C146.198 320.507 143.99 317.339 150.134 316.091C156.47 314.747 154.358 317.051 154.358 317.051L158.774 318.587C158.966 318.971 159.254 319.451 159.35 319.835C160.598 322.427 162.038 325.403 160.886 328.187C167.125 331.642 172.021 336.634 177.301 342.202C192.277 358.042 186.517 350.362 191.989 355.546C193.525 356.986 202.932 372.057 203.316 373.305C204.948 377.625 204.372 381.465 205.716 385.881C207.156 390.392 208.596 390.2 210.324 393.752C199.38 390.584 199.188 375.897 186.805 373.113L189.877 382.425C183.637 381.753 178.933 376.953 174.709 373.593C173.845 377.049 174.805 374.073 177.013 379.737C167.893 386.361 169.621 380.985 173.173 382.425C177.493 384.153 173.749 380.217 176.821 385.209C174.037 396.824 174.325 382.809 172.885 392.984C162.71 392.312 156.47 395.48 147.158 391.16C146.966 391.064 146.582 390.968 146.39 390.872C142.166 388.281 144.374 390.872 143.318 386.553C146.102 394.52 135.447 388.281 143.798 397.496C146.294 395.48 158.102 396.44 163.67 396.44C170.677 396.536 181.237 396.632 188.149 397.208C191.989 395.288 244.019 395 254.195 395.672C259.09 397.112 274.162 396.536 275.122 398.264C275.698 401.72 273.49 403.064 270.802 403.448C269.266 403.64 267.442 403.448 265.138 403.448C261.202 403.544 256.498 403.64 252.851 403.544C245.075 403.448 238.067 404.504 230.195 404.216C222.036 403.928 215.316 402.776 207.54 402.584C201.876 402.488 191.893 404.696 187.861 402.296C181.525 402.872 171.445 401.336 166.933 404.696L168.661 405.272C173.173 407 174.517 406.424 180.757 406.328C186.037 406.232 190.069 407.192 194.101 407.96C191.125 414.68 199.284 404.888 192.853 409.496L185.173 412.28C182.773 412.856 175.957 414.2 174.517 414.776C177.493 417.944 175.477 415.736 181.237 416.696C202.356 420.055 209.172 415.448 211.284 415.448C209.076 414.104 209.844 414.776 207.156 413.816L204.18 412.664C203.892 412.568 203.508 412.376 203.22 412.28L195.733 409.784C195.349 409.592 194.869 409.496 194.485 409.208C196.596 406.616 199.86 406.136 204.084 406.328C204.276 406.328 204.66 406.424 204.852 406.424L272.914 408.44C280.978 408.824 278.482 408.152 284.818 405.272C290.577 405.944 289.425 407.192 294.225 407.192C299.121 407.288 304.209 403.64 317.936 405.08L354.799 407.864L372.847 402.776C354.703 403.448 341.552 400.472 323.504 401.24C314.769 401.624 306.897 400.856 298.161 401.432C290.385 402.008 282.802 403.448 274.834 403.448L275.122 398.264L386.478 397.784L403.949 385.305C397.614 385.785 398.574 385.209 393.87 381.561C391.662 379.833 389.646 378.393 386.286 377.145C378.99 374.745 372.655 377.337 366.895 380.217C359.983 381.465 350.959 376.953 345.103 373.017C330.32 363.129 340.4 368.985 324.752 363.897C302.673 356.602 297.105 336.442 285.681 348.25C292.785 348.154 291.921 346.234 295.473 352.474C299.217 358.042 317.648 370.617 324.272 373.977C329.936 376.857 329.744 376.377 332.912 381.273C324.464 385.305 314.769 383.001 306.417 381.657C311.985 386.841 318.128 385.785 320.24 387.993C323.984 391.928 321.872 393.368 321.776 394.616L301.233 393.656C301.137 393.848 300.561 395 300.465 394.712C300.273 394.424 299.793 395.48 299.505 395.864L272.05 393.272C272.818 388.281 270.898 394.136 273.586 391.064C275.602 388.857 276.658 390.008 276.658 385.209L274.162 390.488L271.474 389.144C271.186 389.049 270.898 388.953 270.706 388.857L266.098 387.129C265.906 386.553 265.234 386.841 264.85 386.553C265.522 374.361 270.034 379.065 271.09 373.305C267.634 372.921 266.962 372.633 263.794 373.017C263.794 373.017 259.378 373.977 258.706 374.169C259.858 368.601 259.282 370.713 265.042 366.585L268.978 363.513L274.162 367.257C282.802 359.194 273.01 364.857 276.85 353.434C281.458 353.338 281.842 357.466 284.818 357.37L286.161 347.482C274.738 350.458 273.106 347.674 262.066 353.05C256.306 355.834 249.107 360.249 243.251 361.113C235.763 352.762 228.563 351.898 220.02 344.41L209.94 340.378L190.165 345.082C183.253 337.978 158.486 316.187 155.03 308.699C150.326 309.563 147.35 310.523 144.374 312.827C143.702 313.307 141.11 315.611 140.822 315.899C137.942 318.971 139.862 316.475 138.23 319.355Z" fill="#8A8B8D"/>
<path fill-rule="evenodd" clip-rule="evenodd" d="M323.022 87.1393C312.558 97.219 293.455 88.8673 277.519 95.2991C271.471 97.699 267.824 95.779 264.848 101.251C269.551 103.843 276.079 102.115 282.127 101.827L321.774 102.211C328.398 105.091 347.021 101.731 357.965 103.939C354.413 106.627 345.389 104.803 340.781 104.995L327.534 106.435C324.27 107.875 325.71 106.339 323.79 109.219C325.902 110.467 323.598 109.603 327.534 110.563L350.285 112.482C354.989 112.194 357.005 111.043 358.732 113.922C363.052 113.538 369.292 114.402 372.076 116.61C382.828 115.746 387.916 116.418 398.091 117.282C406.827 118.05 416.907 116.898 426.122 116.994L433.13 114.498C430.826 97.507 433.13 95.875 433.514 79.9396C433.802 73.2198 433.322 68.8999 434.57 62.7562C436.49 52.9645 433.226 56.9964 432.842 47.9727L431.402 52.1005C415.851 48.0687 414.507 56.8044 405.771 61.8922C389.259 71.5879 384.268 66.116 372.94 73.4118C363.532 79.3636 358.924 77.1557 350.669 78.7876C341.549 80.6116 333.101 86.3714 323.022 87.1393Z" fill="#E3968B"/>
<path fill-rule="evenodd" clip-rule="evenodd" d="M220.017 344.412C228.561 351.9 235.761 352.764 243.248 361.115C249.104 360.251 256.304 355.836 262.064 353.052C273.103 347.676 274.735 350.46 286.159 347.484L285.679 348.252C297.103 336.444 302.67 356.603 324.75 363.899C340.397 368.987 330.317 363.131 345.101 373.019C350.957 376.955 359.98 381.467 366.892 380.219C366.988 371.867 368.716 365.819 366.892 356.699L318.702 352.764C325.71 348.924 335.117 351.132 340.973 347.196C348.173 347.868 346.445 346.428 351.053 343.548C354.221 341.532 351.821 343.068 354.509 342.012C357.677 340.764 365.932 340.956 353.645 324.445C348.077 316.957 342.413 309.373 335.213 304.093C304.59 281.822 269.167 281.054 237.201 302.269C222.417 312.061 211.761 326.365 209.938 340.38L220.017 344.412Z" fill="#EBCCB4"/>
<path fill-rule="evenodd" clip-rule="evenodd" d="M138.229 319.357C136.597 320.029 137.941 319.165 135.349 321.085C125.078 328.956 120.758 341.628 105.206 345.564C99.6384 347.004 97.7185 349.788 92.8227 350.748C95.0306 356.411 96.3745 357.467 99.0625 362.555C95.8946 364.859 94.4546 364.283 92.0547 365.243C93.9746 370.331 94.7426 370.331 97.5265 373.883C100.214 377.243 98.1025 373.787 99.9264 377.243C97.9105 379.835 99.1584 378.107 96.6625 379.547L92.9187 381.563C96.9505 385.786 100.982 385.498 101.942 391.834L94.0706 393.178L95.7986 395.866L122.006 394.906C122.774 388.09 124.31 389.434 126.998 384.539C132.949 373.595 123.734 386.458 129.013 370.907C130.933 365.339 129.397 368.603 129.781 365.147C129.877 363.995 132.277 355.547 132.949 353.532C135.253 355.068 139.189 365.243 140.053 368.795C142.165 376.763 139.285 370.811 139.573 377.243C139.669 380.027 142.069 383.003 143.317 386.554C144.373 390.874 142.165 388.282 146.389 390.874C146.581 390.97 146.965 391.066 147.157 391.162C156.469 395.482 162.708 392.314 172.884 392.986C174.324 382.811 174.036 396.826 176.82 385.21C173.748 380.219 177.492 384.155 173.172 382.427C169.62 380.987 167.892 386.362 177.012 379.739C174.804 374.075 173.844 377.051 174.708 373.595C163.764 367.067 164.148 361.979 160.884 354.492C159.732 351.804 160.404 353.148 159.156 351.132C158.292 349.5 157.812 349.116 157.14 347.964C157.332 347.676 157.812 347.58 158.004 347.484L163.476 345.564C163.668 345.276 164.148 345.468 164.34 345.276C159.444 342.588 159.732 339.42 155.989 334.14C150.805 326.94 153.301 327.036 152.149 318.397C155.989 319.261 159.444 323.389 160.884 328.188C162.036 325.405 160.596 322.429 159.348 319.837C159.252 319.453 158.964 318.973 158.772 318.589L154.357 317.053C154.357 317.053 156.469 314.749 150.133 316.093C143.989 317.341 146.197 320.509 138.229 319.357Z" fill="#868A8D"/>
<path fill-rule="evenodd" clip-rule="evenodd" d="M63.0614 427.641L59.5096 430.425C57.7816 427.833 56.6297 425.529 55.4777 423.513C64.0214 424.665 60.7575 424.281 63.0614 427.641ZM35.4144 409.882C35.0304 425.337 34.7424 416.986 33.3984 423.129L36.3743 462.776C37.3343 469.784 33.2064 505.879 37.8143 517.206C46.166 519.798 88.1166 520.086 94.6444 517.11C84.4687 516.054 71.4132 518.166 60.8535 517.494C63.4454 514.134 69.2052 511.35 73.1411 509.526C68.5332 505.975 70.7412 507.799 62.0055 509.143C51.6378 510.87 45.11 505.207 55.8617 500.119C62.0055 497.335 72.3731 493.879 76.405 481.495C69.1092 481.975 68.0533 485.431 59.0296 482.935C58.4536 477.944 60.8535 477.56 64.1174 475.352C69.3012 472.088 70.1652 471.608 72.8531 466.808C66.9973 468.056 64.7894 469.784 58.1656 468.824C58.3576 464.504 59.7015 464.696 61.7175 462.104C64.0214 459.32 62.1015 462.2 63.8294 459.032C69.6852 447.705 71.7971 453.08 74.2931 445.017C69.0132 446.169 67.9573 447.897 61.8135 447.993C61.7175 438.969 65.0774 440.601 70.1652 435.897C72.7571 433.593 75.061 428.697 78.9009 427.353C72.9491 427.449 70.5492 431.673 62.8694 431.385L63.0614 427.641C65.3654 426.105 65.9413 421.305 66.5173 419.866C72.1811 417.754 74.965 417.85 77.269 413.434C78.9969 410.362 77.8449 413.146 78.9009 408.73C75.637 409.69 73.1411 410.554 68.6292 410.362L67.4773 405.178L65.3654 405.082C62.8694 413.53 63.1574 405.658 60.4695 413.242L63.5414 414.874C63.8294 414.97 64.3094 415.066 64.5014 415.066C64.8854 415.258 66.4213 415.354 66.9013 415.45C64.3094 418.618 64.2134 418.906 59.3176 419.962L53.2698 413.05C57.3976 408.538 56.5337 413.626 56.4377 407.29C42.5181 402.586 38.4863 408.634 35.4144 409.882Z" fill="#35434A"/>
<path fill-rule="evenodd" clip-rule="evenodd" d="M409.515 509.524C413.163 508.084 413.643 507.22 416.522 504.916L449.737 473.333C449.353 472.277 448.393 470.741 448.393 469.877C447.817 464.117 448.105 470.837 449.161 466.805C449.833 464.309 451.945 470.453 449.545 463.253C448.873 461.333 448.393 461.621 446.953 460.758L448.777 458.742C448.873 458.646 449.257 458.358 449.353 458.166C452.713 455.286 450.025 457.974 449.929 458.166C448.681 452.982 447.433 453.462 446.569 450.198C446.281 449.238 445.609 441.366 445.609 439.446C445.417 439.062 444.937 438.102 444.553 437.622C443.018 435.894 443.69 436.95 442.634 436.47C433.898 442.902 442.346 447.51 434.57 453.27C435.05 461.717 433.13 446.55 435.626 456.15C436.682 460.374 436.97 452.982 436.01 458.646C435.914 459.318 437.738 461.142 433.61 460.182C433.418 460.182 425.738 455.19 425.162 454.614C429.962 451.446 427.466 455.094 430.538 450.582C426.698 446.166 428.042 449.814 426.506 444.918L425.546 437.622C425.258 434.166 423.434 428.503 420.17 427.159C417.002 432.534 417.866 438.006 416.138 443.67C414.602 448.662 414.123 446.646 413.451 449.718C412.011 456.438 414.315 448.374 414.315 457.206C401.835 452.598 412.779 441.462 403.467 435.126C402.411 436.278 399.915 440.022 399.051 442.038C393.483 454.326 396.075 450.486 396.267 453.654C396.651 461.717 391.755 452.022 397.419 464.405C392.523 465.557 395.019 463.637 391.755 467.957C395.211 470.645 393.963 468.725 397.995 470.453C390.315 471.221 392.331 470.741 385.803 468.533C385.515 467.861 387.435 467.957 384.652 466.613L391.371 462.581C388.299 459.222 389.067 459.894 384.364 459.222C386.091 453.078 385.419 457.398 388.299 451.926L382.828 437.91C382.828 437.91 383.116 436.95 382.924 435.03C382.54 431.383 382.348 431.575 380.812 429.175C376.78 430.999 376.108 432.822 375.436 439.926L373.228 450.678C369.388 450.102 367.756 448.278 367.756 446.934L368.428 444.054C368.524 439.926 368.428 443.094 367.564 440.214C364.972 430.999 367.276 428.119 362.188 424.951C358.54 427.447 359.788 424.663 358.444 431.287C357.58 435.222 357.292 435.222 358.924 437.91L354.701 439.926L355.181 444.15C355.277 444.438 355.564 444.822 355.66 445.014L356.812 446.55C354.317 448.758 354.125 448.662 352.205 451.926C353.453 455.094 355.756 452.982 357.196 457.59C353.165 459.222 352.877 459.798 349.805 461.909C350.765 466.421 351.245 465.941 353.453 467.957C353.261 468.149 352.877 468.437 352.685 468.629L347.693 473.237C354.989 478.901 350.861 473.045 352.493 477.269C346.541 479.477 345.197 478.805 339.629 477.173C345.581 474.101 343.085 479.093 346.925 473.237C344.141 467.765 343.757 469.973 339.053 467.477L345.581 464.693C340.973 456.822 341.837 464.405 340.877 454.614C340.205 447.798 341.645 449.91 339.149 444.63L337.133 442.422C335.021 440.79 337.517 441.846 333.293 440.406C332.813 446.262 331.853 453.462 330.317 457.782C324.654 474.005 333.005 461.525 327.533 470.645C324.75 468.917 327.341 471.221 325.422 468.725C325.23 468.437 324.174 466.421 323.982 466.133L320.814 460.47L315.15 467.477C314.958 467.765 314.862 468.149 314.766 468.437C309.006 482.645 316.878 476.981 310.35 484.085C312.462 489.557 311.022 483.605 313.806 488.597L308.43 493.876L313.806 495.892C309.006 501.364 307.662 497.908 306.606 504.34L300.846 503.572C301.518 500.692 301.518 501.748 302.478 498.004C300.366 496.756 298.446 496.276 295.759 494.548L299.502 493.204C301.038 492.82 301.326 493.108 303.15 492.724C301.614 486.485 303.054 490.421 300.942 489.845C295.087 477.461 300.942 485.429 301.038 479.957C301.23 475.925 301.23 479.573 293.647 473.237C296.622 471.797 296.622 473.237 300.174 470.549C298.158 465.941 299.214 467.477 295.087 465.749C297.966 454.614 296.238 462.197 293.359 450.006C290.671 438.87 294.031 437.046 287.023 436.374C287.887 442.326 286.255 438.87 284.719 443.382C284.143 445.206 285.487 448.086 283.183 454.23C283.087 454.614 282.991 454.998 282.799 455.286C279.343 462.677 278.575 458.838 278.191 458.646C278.095 458.358 277.999 457.878 277.999 457.686C277.903 457.398 277.807 456.918 277.807 456.63L276.559 449.718C274.735 444.246 275.599 445.782 271.567 444.63C266.288 463.157 273.391 453.654 266 461.238C266.48 463.445 266.671 463.349 267.151 464.309C267.343 464.597 268.495 466.229 268.687 466.613C264.944 468.245 265.232 468.053 263.408 471.893C265.232 474.581 267.439 474.581 268.783 475.925C265.136 480.053 264.848 477.941 261.584 482.549C262.256 484.565 261.872 485.429 266.959 486.485L260.24 492.532C259.952 492.436 255.728 491.092 254.768 490.613C253.808 489.461 255.92 489.749 251.216 488.405C252.464 486.773 251.984 487.349 253.52 485.909L253.424 480.341C250.352 474.677 254.096 462.389 245.264 460.47C242.096 467.669 245.84 470.453 240.848 474.869C237.968 471.509 239.12 468.725 238.448 464.597C237.968 461.717 236.433 458.454 234.129 457.206C230.289 459.51 228.945 464.693 227.697 468.341C224.241 478.709 229.617 472.085 225.873 480.053C225.201 479.957 214.353 475.253 212.913 473.909L220.593 471.797C219.057 464.501 220.689 470.261 213.009 465.269L218.385 461.238C214.641 455.862 215.313 461.621 214.161 453.174C213.393 447.414 214.641 446.646 213.681 443.67C207.345 440.502 214.257 439.446 207.633 437.814L206.386 443.958C205.426 454.806 199.858 464.405 199.378 463.733C199.282 463.445 198.898 464.501 198.514 464.789C199.954 455.862 200.05 452.694 195.538 446.646C191.218 448.278 187.762 457.398 187.09 461.717L187.666 465.461C187.57 470.837 185.266 466.133 186.514 471.797C187.186 474.965 187.378 466.901 187.762 476.021C179.602 474.773 182.866 471.797 178.546 471.893C181.33 463.445 181.522 473.621 184.21 465.269L176.339 461.238C176.723 460.95 179.602 459.702 181.714 455.958L173.459 451.926C178.45 450.774 176.723 452.79 181.714 448.758L181.426 444.63C178.162 443.19 175.763 442.038 171.923 441.654C172.307 441.462 172.787 441.174 173.075 441.078C173.363 440.886 173.843 440.598 174.227 440.406L178.546 437.238C176.531 432.726 176.819 433.686 171.827 432.822L177.107 426.199C174.227 424.663 171.635 424.183 171.539 414.679C171.539 404.887 170.291 413.431 168.659 405.271L166.931 404.695L165.491 404.023C163.859 410.455 163.475 419.767 160.883 424.087C150.323 421.975 158.483 416.119 151.475 407.095C144.468 409.303 152.051 411.223 144.18 414.679C148.499 418.903 151.667 419.287 151.283 426.199C142.356 427.255 146.964 424.087 139.476 419.959L138.42 422.551C137.172 429.175 142.068 430.327 143.892 431.479C147.924 433.974 150.515 435.606 152.915 439.83C144.756 443.094 147.54 440.598 139.476 437.238C141.012 443.478 147.732 449.718 154.067 449.91C154.259 455.766 155.219 456.63 157.331 459.894C154.739 462.005 157.619 460.47 154.259 461.142C151.091 461.813 146.772 458.166 141.78 457.878C143.796 458.55 141.588 457.11 143.988 459.51C145.044 460.47 145.236 460.95 146.292 462.389C154.067 472.757 157.619 469.205 157.811 478.133C151.379 478.997 150.995 476.405 144.66 475.445C149.171 484.565 148.403 476.117 155.795 490.133C158.291 494.836 158.963 492.532 160.211 496.468C160.883 498.772 160.499 498.1 160.115 499.252C153.395 501.46 152.243 498.292 145.428 496.564C150.227 507.316 158.387 502.804 160.211 514.036C150.227 514.9 148.116 511.54 142.164 512.308L145.14 517.78L186.994 518.644L204.658 517.78C210.033 515.668 250.736 515.476 260.816 515.956L275.599 515.86C276.079 515.86 276.367 515.956 276.847 515.956L279.343 516.724C279.727 516.82 280.207 516.916 280.591 517.108C291.919 518.068 309.294 517.588 320.91 517.108C327.245 516.916 333.965 515.764 339.917 515.188C346.637 514.516 352.589 516.052 358.828 514.42C362.572 516.532 381.292 515.668 387.531 515.668C397.611 515.668 407.115 517.396 409.515 509.524Z" fill="#36454C"/>
<path fill-rule="evenodd" clip-rule="evenodd" d="M181.716 448.762C187.668 448.666 195.251 444.538 206.387 443.962L207.635 437.818C214.259 439.45 207.347 440.506 213.683 443.674C227.794 443.194 235.57 420.058 254.865 419.387C264.561 409.115 281.936 408.347 294.896 412.091L301.616 414.779C311.407 411.419 323.119 419.195 332.719 421.786C334.063 420.25 333.295 420.922 335.023 419.579C341.262 414.875 351.342 411.323 354.798 407.867L317.935 405.083C304.208 403.643 299.12 407.291 294.224 407.195C289.424 407.195 290.576 405.947 284.816 405.275C278.48 408.155 280.976 408.827 272.913 408.443L204.851 406.427C204.659 406.427 204.275 406.331 204.083 406.331C199.859 406.139 196.595 406.619 194.483 409.211C194.867 409.499 195.347 409.595 195.731 409.787L203.219 412.283C203.507 412.379 203.891 412.571 204.179 412.667L207.155 413.819C209.843 414.779 209.075 414.107 211.283 415.451C209.171 415.451 202.355 420.058 181.236 416.699C175.476 415.739 177.492 417.947 174.516 414.779C175.956 414.203 182.772 412.859 185.172 412.283L192.851 409.499C199.283 404.891 191.123 414.683 194.099 407.963C190.067 407.195 186.036 406.235 180.756 406.331C174.516 406.427 173.172 407.003 168.66 405.275C170.292 413.435 171.54 404.891 171.54 414.683C171.636 424.186 174.228 424.666 177.108 426.202L171.828 432.826C176.82 433.69 176.532 432.73 178.548 437.242L174.228 440.41C173.844 440.602 173.364 440.89 173.076 441.082C172.788 441.178 172.308 441.466 171.924 441.658C175.764 442.042 178.164 443.194 181.428 444.634L181.716 448.762Z" fill="#848A8C"/>
<path fill-rule="evenodd" clip-rule="evenodd" d="M364.015 245.439C363.055 243.039 362.959 243.423 361.903 239.775C369.87 240.159 367.758 241.695 373.422 243.519C379.086 245.343 379.95 243.615 384.27 243.135C384.366 250.143 381.774 249.375 376.878 252.063C373.23 254.175 371.31 257.055 366.799 253.983C367.374 251.007 373.134 248.031 364.015 245.439ZM450.412 236.8L458.859 229.408L464.235 224.224L432.94 193.217C427.852 187.937 404.141 166.626 399.149 165.666C393.294 164.514 375.726 164.994 368.814 165.09C356.719 165.282 350.959 164.034 340.687 162.882C321.392 160.674 299.121 163.17 281.169 161.25C276.658 164.802 265.138 164.802 260.434 161.154C233.939 161.154 210.804 157.218 185.269 157.314L183.349 157.218L174.229 156.738C175.381 162.978 174.709 160.386 181.909 161.634C191.604 167.01 188.725 168.93 191.22 170.85C199.476 174.498 201.108 171.906 206.196 180.641C222.707 179.778 210.516 174.306 230.195 183.521C240.275 188.801 226.931 179.106 244.979 190.625L254.77 195.329C261.874 199.745 271.09 208.001 282.609 205.505L319.376 210.592C318.608 213.472 317.552 214.816 310.256 215.008C292.113 215.584 307.377 209.536 276.082 217.6C261.202 221.44 247.955 217.6 236.915 218.56L225.875 221.248C234.035 224.896 239.315 221.92 247.091 223.456C245.555 229.024 242.195 230.08 235.571 229.696C228.947 229.408 224.627 229.504 218.196 229.408C203.988 229.312 199.956 224.608 185.461 230.08C174.805 232.768 160.789 228.256 154.742 229.696C150.902 230.656 152.63 231.136 148.022 232.576C141.59 234.592 131.222 233.824 124.599 233.344C111.831 231.136 109.239 228.736 95.3197 230.848C86.104 232.384 72.9524 225.76 65.8487 229.216C69.2086 231.712 70.8405 231.616 76.7923 232C88.3119 232.864 103.767 232.288 106.743 238.624L101.175 240.735C99.5435 241.023 97.7196 241.215 95.7037 241.599C79.3842 245.151 69.2086 242.943 64.7927 246.975C48.5693 249.663 49.4332 247.455 34.5537 246.591L29.8499 246.975L29.7539 250.239L31.7698 257.247C31.9618 260.703 31.4818 261.855 32.1538 265.887C60.1849 268.095 130.167 268.479 147.35 270.782C157.046 272.126 175.189 273.278 185.269 272.51C197.94 273.374 208.98 271.454 222.035 272.414C234.227 273.278 247.859 273.278 260.818 273.662L276.754 276.062L276.85 275.966C294.033 276.83 313.712 277.982 330.416 276.35C344.047 275.102 366.799 278.078 382.158 278.654C394.734 279.134 396.749 281.054 404.429 274.238C410.477 268.862 414.317 267.231 420.077 261.855C428.428 254.079 440.524 242.079 450.412 236.8Z" fill="#E98979"/>
<path fill-rule="evenodd" clip-rule="evenodd" d="M62.1997 87.0446C58.7438 88.1966 54.712 89.6365 51.8321 91.0765C48.9522 92.6124 46.4563 95.3003 43.4804 97.2203C45.4003 98.7562 38.7765 101.156 47.4162 97.7002C59.0318 98.1802 62.7757 99.4282 66.8076 109.796C69.3035 116.036 65.7516 111.428 72.6634 115.748C80.2471 120.451 72.4714 123.619 87.1589 117.956C111.926 120.451 115.382 113.732 118.166 122.755C118.07 122.947 117.782 123.139 117.686 123.523L115.574 125.635C115.478 125.827 114.998 126.115 114.71 126.307L114.806 132.547C120.374 133.027 124.118 134.947 126.71 135.331C131.125 135.907 131.317 132.451 139.477 133.027C153.013 133.891 154.069 144.739 155.509 147.523C161.076 147.523 162.132 146.755 166.836 148.675C161.844 148.675 158.868 149.634 154.165 149.634C149.077 149.73 145.813 148.867 140.437 149.25C146.869 152.226 174.228 150.594 184.02 150.402C182.196 145.699 184.692 149.25 179.988 146.083C179.892 145.987 177.876 144.835 177.588 144.643C175.476 143.107 176.34 144.355 174.708 142.051L173.364 137.251C169.332 135.043 172.116 135.619 166.932 133.507C164.244 132.451 162.612 132.547 160.5 130.819C157.141 128.035 157.812 123.907 152.245 119.204C140.533 109.316 133.717 113.252 118.454 115.94L119.51 112.1C107.606 107.108 115.478 102.98 95.5106 104.036C93.8787 101.636 92.5347 98.9482 90.0388 95.8763C82.839 86.7566 73.6233 85.4127 62.1997 87.0446Z" fill="#D48C84"/>
<path fill-rule="evenodd" clip-rule="evenodd" d="M2.48918 89.2523C-0.678718 89.9243 1.24122 88.5803 0.28125 92.4202L32.2482 119.107C45.1117 132.739 41.2719 129.571 54.9994 140.419C58.8393 143.394 60.9512 143.778 60.5672 148.866C63.2551 145.698 63.2551 141.379 66.327 137.443C70.1669 132.643 77.6546 132.643 77.7506 132.163C77.8466 131.683 70.2629 130.915 71.7028 126.883C77.6546 124.675 76.1187 128.227 82.8385 127.651C84.4704 123.235 84.9504 121.315 87.1583 117.955C72.4708 123.619 80.2465 120.451 72.6628 115.747C65.751 111.428 69.3029 116.035 66.807 109.796C62.7751 99.428 59.0313 98.18 47.4157 97.7L43.4798 100.388C40.1199 95.4921 42.9038 95.0121 36.952 90.5963C29.0803 84.7405 20.7286 85.6044 12.4728 88.8683C7.00102 91.0763 9.11295 89.0603 2.48918 89.2523Z" fill="#BD616C"/>
<path fill-rule="evenodd" clip-rule="evenodd" d="M195.539 4.96829C186.9 6.40824 186.228 7.6562 186.516 17.0639C186.708 21.7677 187.284 31.8474 188.244 36.1672V36.6472C198.035 36.9352 279.441 36.2632 280.305 35.6872L281.649 8.52017C266.961 5.64027 258.225 2.18439 240.658 0.648438L233.938 18.2158C230.002 27.7195 229.234 23.3997 227.506 34.6313C225.01 34.6313 204.563 31.3674 201.971 29.3515C197.459 25.7996 194.291 13.032 195.539 4.96829Z" fill="#7E6161"/>
<path fill-rule="evenodd" clip-rule="evenodd" d="M213.682 443.672C214.642 446.648 213.394 447.416 214.162 453.176C215.314 461.624 214.642 455.864 218.386 461.24L213.01 465.272C220.69 470.263 219.058 464.504 220.594 471.799L212.914 473.911C214.354 475.255 225.202 479.959 225.874 480.055C229.617 472.087 224.242 478.711 227.698 468.344C228.946 464.696 230.289 459.512 234.129 457.208C236.433 458.456 237.969 461.72 238.449 464.6C239.121 468.728 237.969 471.511 240.849 474.871C245.841 470.455 242.097 467.672 245.265 460.472C254.097 462.392 250.353 474.679 253.425 480.343L253.521 485.911C251.985 487.351 252.465 486.775 251.217 488.407C255.921 489.751 253.809 489.463 254.769 490.615C255.729 491.095 259.952 492.439 260.24 492.535L266.96 486.487C261.872 485.431 262.256 484.567 261.584 482.551C264.848 477.943 265.136 480.055 268.784 475.927C267.44 474.583 265.232 474.583 263.408 471.895C265.232 468.056 264.944 468.248 268.688 466.616C268.496 466.232 267.344 464.6 267.152 464.312C266.672 463.352 266.48 463.448 266 461.24C273.392 453.656 266.288 463.16 271.568 444.632C275.6 445.784 274.736 444.248 276.56 449.72L277.808 456.632C277.808 456.92 277.904 457.4 278 457.688C278 457.88 278.096 458.36 278.192 458.648C278.576 458.84 279.344 462.68 282.8 455.288C282.992 455 283.088 454.616 283.184 454.232C285.488 448.088 284.144 445.208 284.72 443.384C286.256 438.873 287.888 442.328 287.024 436.377C294.031 437.049 290.671 438.873 293.359 450.008C296.239 462.2 297.967 454.616 295.087 465.752C299.215 467.48 298.159 465.944 300.175 470.551C296.623 473.239 296.623 471.799 293.647 473.239C301.231 479.575 301.231 475.927 301.039 479.959C300.943 485.431 295.087 477.463 300.943 489.847C303.055 490.423 301.615 486.487 303.151 492.727C301.327 493.111 301.039 492.823 299.503 493.207L295.759 494.551C298.447 496.279 300.367 496.759 302.479 498.007C301.519 501.75 301.519 500.694 300.847 503.574L306.607 504.342C307.663 497.911 309.007 501.366 313.807 495.895L308.431 493.879L313.807 488.599C311.023 483.607 312.463 489.559 310.351 484.087C316.879 476.983 309.007 482.647 314.767 468.44C314.863 468.152 314.959 467.768 315.151 467.48L320.814 460.472L323.982 466.136C324.174 466.424 325.23 468.44 325.422 468.728C327.342 471.223 324.75 468.92 327.534 470.647C333.006 461.528 324.654 474.007 330.318 457.784C331.854 453.464 332.814 446.264 333.294 440.409C337.518 441.848 335.022 440.792 337.134 442.424L339.15 444.632C341.646 449.912 340.206 447.8 340.878 454.616C341.838 464.408 340.974 456.824 345.582 464.696L339.054 467.48C343.758 469.976 344.142 467.768 346.926 473.239C343.086 479.095 345.582 474.103 339.63 477.175C345.198 478.807 346.542 479.479 352.493 477.271C350.861 473.047 354.989 478.903 347.694 473.239L352.685 468.632C352.877 468.44 353.261 468.152 353.453 467.96C351.245 465.944 350.765 466.424 349.805 461.912C352.877 459.8 353.165 459.224 357.197 457.592C355.757 452.984 353.453 455.096 352.205 451.928C354.125 448.664 354.317 448.76 356.813 446.552L355.661 445.016C355.565 444.824 355.277 444.44 355.181 444.152L354.701 439.929L358.925 437.913C357.293 435.225 357.581 435.225 358.445 431.289C359.789 424.665 358.541 427.449 362.189 424.953C367.277 428.121 364.973 431.001 367.565 440.217C368.429 443.096 368.525 439.929 368.429 444.056L367.757 446.936C367.757 448.28 369.389 450.104 373.229 450.68L375.437 439.929C376.109 432.825 376.781 431.001 380.812 429.177C382.348 431.577 382.54 431.385 382.924 435.033C383.116 436.953 382.828 437.913 382.828 437.913L388.3 451.928C385.42 457.4 386.092 453.08 384.364 459.224C389.068 459.896 388.3 459.224 391.372 462.584L384.652 466.616C387.436 467.96 385.516 467.864 385.804 468.536C392.332 470.743 390.316 471.223 397.996 470.455C393.964 468.728 395.212 470.647 391.756 467.96C395.02 463.64 392.524 465.56 397.42 464.408C391.756 452.024 396.652 461.72 396.268 453.656C396.076 450.488 393.484 454.328 399.052 442.04C399.916 440.025 402.412 436.281 403.468 435.129C412.779 441.464 401.836 452.6 414.315 457.208C414.315 448.376 412.011 456.44 413.451 449.72C414.123 446.648 414.603 448.664 416.139 443.672C417.867 438.009 417.003 432.537 420.171 427.161C423.435 428.505 425.259 434.169 425.547 437.625L426.507 444.92C428.043 449.816 426.699 446.168 430.539 450.584C427.467 455.096 429.963 451.448 425.163 454.616C425.739 455.192 433.419 460.184 433.611 460.184C437.738 461.144 435.915 459.32 436.011 458.648C436.97 452.984 436.682 460.376 435.627 456.152C433.131 446.552 435.051 461.72 434.571 453.272C442.346 447.512 433.899 442.904 442.634 436.473C439.658 429.849 431.211 425.049 425.643 420.441C424.299 419.385 423.915 418.809 422.763 418.041C420.651 416.697 421.515 417.081 419.403 416.601C416.715 412.089 407.883 404.314 401.932 402.586C396.844 401.242 378.604 402.01 372.845 402.778L354.797 407.866C351.341 411.321 341.262 414.873 335.022 419.577C333.294 420.921 334.062 420.249 332.718 421.785C323.118 419.193 311.407 411.417 301.615 414.777L294.895 412.089C281.936 408.346 264.56 409.114 254.865 419.385C235.569 420.057 227.794 443.192 213.682 443.672Z" fill="#56666D"/>
<path fill-rule="evenodd" clip-rule="evenodd" d="M16.6973 323.292C23.5131 316.764 28.217 311.58 35.6087 305.244C40.2166 301.405 42.4245 300.541 46.0724 297.181C66.6157 277.597 67.0956 282.109 86.199 281.917C98.7746 281.725 109.142 283.741 122.102 281.629C132.757 281.341 143.797 281.821 154.165 281.533C162.804 281.245 180.66 283.933 186.132 281.245L185.268 272.51C175.188 273.278 157.045 272.126 147.349 270.782C130.166 268.478 60.1839 268.094 32.1528 265.886C31.4808 261.854 31.9608 260.702 31.7688 257.246L29.7529 250.238C26.969 254.846 28.313 267.614 31.3848 271.934C31.5768 272.222 32.8248 273.565 32.8248 273.661L43.4804 273.373C45.3044 275.389 45.3044 273.661 46.1683 277.501C52.0242 268.67 66.0397 273.278 78.1353 273.278L72.4715 278.365C72.2795 278.557 71.7995 279.325 71.5115 279.613C60.4719 279.037 59.6079 279.997 50.7762 289.693C41.9445 299.293 37.7206 293.341 33.2088 301.213C29.1769 308.22 28.217 307.932 20.1532 315.42C16.4094 318.876 15.9294 320.796 16.6973 323.292Z" fill="#FAD5C7"/>
<path fill-rule="evenodd" clip-rule="evenodd" d="M177.3 698.257C177.3 698.257 176.244 700.657 175.284 701.425L173.076 698.737L173.364 701.809L169.812 701.521C168.084 703.825 165.877 704.497 163.477 706.512C160.981 708.432 159.637 710.544 157.621 712.656C153.301 717.168 148.885 718.896 150.901 727.728C159.253 735.791 204.659 736.943 215.603 729.264L215.027 719.088C211.571 712.176 216.371 715.44 210.035 710.832C204.371 706.608 208.019 710.448 203.987 704.785C198.227 696.817 196.979 698.833 186.324 698.353C184.212 699.601 186.708 699.121 184.116 699.025C183.924 699.025 182.292 698.257 181.908 697.969C181.524 700.753 182.868 698.449 180.852 700.273C177.876 699.217 179.124 700.465 177.3 698.257Z" fill="#B97365"/>
<path fill-rule="evenodd" clip-rule="evenodd" d="M272.626 648.336C270.514 655.344 267.538 662.352 266.866 671.375C266.098 680.399 266.29 689.423 266.002 698.35C261.394 688.559 256.402 667.823 248.051 665.424C249.587 670.799 257.65 682.703 260.242 696.718C256.69 694.031 256.307 690.959 252.851 688.271C250.547 692.015 255.923 699.214 257.746 704.302C260.242 710.83 261.202 717.262 263.506 723.79C262.642 729.357 262.834 729.741 268.21 730.989C270.514 731.565 278.194 731.661 280.594 731.661L282.322 726.093C285.394 714.958 287.793 713.134 293.169 704.11C297.585 696.622 300.465 689.231 306.705 684.143C308.433 680.687 308.049 680.303 311.889 678.575C308.529 673.967 313.041 677.519 309.681 677.423C306.513 677.423 303.153 684.623 297.489 687.023L286.353 706.702C284.53 710.062 284.338 710.158 282.13 712.366C282.706 700.942 282.034 678.575 291.057 673.007C291.729 669.167 293.457 667.151 295.569 663.984C295.761 663.696 298.161 660.048 298.257 659.856C300.081 653.616 300.657 657.552 297.201 655.44C294.993 660.432 289.713 665.903 287.217 672.047L282.226 681.167L280.786 671.759L279.73 665.136C278.098 667.343 278.482 663.024 278.194 670.415L279.442 687.887C279.154 692.687 275.602 701.806 272.818 706.03C271.378 702.094 268.306 663.024 272.242 662.352C271.57 650.64 277.906 648.336 279.442 639.984C275.218 641.616 275.314 643.44 272.626 648.336Z" fill="#363938"/>
<path fill-rule="evenodd" clip-rule="evenodd" d="M83.0319 127.17C76.3121 127.746 77.6561 124.674 71.7043 126.882C70.3603 130.722 76.0241 131.49 76.0241 131.874C76.0241 132.354 70.3603 132.258 66.3284 137.442C63.2565 141.378 63.2565 145.697 60.5686 148.865L59.2247 153.569C57.7847 155.873 55.2888 158.561 56.9208 162.593C59.0327 167.969 60.9526 165.761 66.1364 167.681C69.4963 161.537 72.1842 157.793 77.0801 153.473C78.04 150.689 76.0241 152.225 79.96 149.057L87.3517 145.313L89.7516 149.057L91.0956 152.129C96.7594 152.225 102.423 151.745 106.743 148.769C108.183 147.137 108.759 146.753 109.911 144.161L96.4714 137.73C105.303 131.106 113.463 131.106 114.711 126.306C114.999 126.114 115.479 125.826 115.575 125.634L117.687 123.522C117.783 123.138 118.071 122.946 118.167 122.754C117.303 119.778 116.343 118.53 114.615 118.146C112.023 117.378 107.703 118.53 99.3513 118.53C93.8795 118.626 89.9436 116.706 87.1597 117.954C85.4318 118.722 84.3758 123.522 83.0319 127.17Z" fill="#2A2D36"/>
<path fill-rule="evenodd" clip-rule="evenodd" d="M125.174 700.846C121.526 705.165 125.462 703.342 120.662 706.221C121.718 712.461 121.046 708.141 124.406 713.901C117.782 713.901 118.07 714.189 115.574 716.397L121.238 715.821L125.846 722.349L122.39 725.613C131.03 722.925 120.182 720.909 134.102 722.253C139.093 722.733 141.877 723.213 147.733 723.309L150.901 727.725C148.885 718.893 153.301 717.165 157.621 712.653C159.637 710.541 160.981 708.429 163.477 706.509C165.877 704.493 168.084 703.821 169.812 701.518C167.988 698.446 167.22 698.062 166.069 694.222L173.076 698.734L175.284 701.422C176.244 700.654 177.3 698.254 177.3 698.254L169.812 679.15C169.236 678.094 168.852 677.518 168.18 676.558C167.028 674.926 166.74 674.83 165.973 674.062C165.493 674.542 163.285 677.23 163.285 677.23C167.316 690.286 176.148 683.854 169.812 692.782C164.245 691.534 171.828 688.174 155.221 687.886C159.157 683.95 159.637 686.83 158.773 682.126C145.909 678.862 138.229 684.526 137.749 687.022C135.926 696.334 135.83 688.174 134.294 695.95C140.437 698.734 141.301 700.558 145.525 703.15C138.037 704.013 138.421 701.71 135.35 700.174C131.318 698.254 130.646 699.982 125.174 700.846Z" fill="#9B948A"/>
<path fill-rule="evenodd" clip-rule="evenodd" d="M306.414 381.659C303.438 378.107 301.134 380.315 297.966 376.187C293.742 370.716 299.31 371.196 292.014 367.932C292.206 367.74 292.59 367.548 292.686 367.452C292.878 367.356 293.262 367.068 293.454 366.876C293.646 366.78 293.934 366.396 294.126 366.204C296.142 363.996 294.318 367.452 295.95 363.228C294.51 361.884 288.558 354.108 295.47 352.476C291.918 346.236 292.782 348.156 285.678 348.252L286.158 347.484L284.814 357.372C281.838 357.468 281.454 353.34 276.847 353.436C273.007 364.86 282.798 359.196 274.159 367.26L268.975 363.516L265.039 366.588C259.279 370.716 259.855 368.604 258.703 374.171C259.375 373.979 263.791 373.02 263.791 373.02C266.959 372.636 267.631 372.924 271.087 373.308C270.031 379.067 265.519 374.363 264.847 386.555C265.231 386.843 265.903 386.555 266.095 387.131L270.703 388.859C270.895 388.955 271.183 389.051 271.471 389.147L274.159 390.491L276.655 385.211C276.655 390.011 275.599 388.859 273.583 391.067C270.895 394.139 272.815 388.283 272.047 393.275L299.502 395.867C299.79 395.483 300.27 394.427 300.462 394.715C300.558 395.003 301.134 393.851 301.23 393.659L321.773 394.619C321.869 393.371 323.981 391.931 320.237 387.995C318.125 385.787 311.981 386.843 306.414 381.659Z" fill="#848A8C"/>
<path fill-rule="evenodd" clip-rule="evenodd" d="M282.32 726.095C292.784 724.655 323.695 722.831 331.183 725.903C333.007 716.496 335.215 722.159 337.902 713.232C347.31 708.912 350.766 706.608 361.518 719.856C361.71 720.048 361.998 720.528 362.286 720.72C363.15 713.808 363.15 719.856 363.63 712.656L354.702 709.968C354.606 704.592 353.166 703.536 348.942 701.52C346.062 700.176 342.99 699.024 339.63 697.2C344.814 687.793 337.902 687.025 330.319 685.297C324.751 683.953 325.519 682.513 321.103 685.393C313.807 690.193 322.159 688.849 314.191 690.001C313.807 686.257 314.479 689.137 310.927 687.217C305.936 684.529 307.951 688.273 306.703 684.145C300.464 689.233 297.584 696.624 293.168 704.112C287.792 713.136 285.392 714.96 282.32 726.095Z" fill="#989388"/>
<path fill-rule="evenodd" clip-rule="evenodd" d="M174.708 373.593C178.932 376.953 183.635 381.752 189.875 382.424L186.803 373.113C199.187 375.897 199.379 390.584 210.322 393.752C208.595 390.2 207.155 390.392 205.715 385.88C204.371 381.464 204.947 377.625 203.315 373.305C202.931 372.057 193.523 356.985 191.987 355.545C186.515 350.361 192.275 358.041 177.3 342.202C172.02 336.634 167.124 331.642 160.884 328.186C159.444 323.386 155.988 319.259 152.148 318.395C153.3 327.034 150.804 326.938 155.988 334.138C159.732 339.418 159.444 342.586 164.34 345.274C164.148 345.466 163.668 345.274 163.476 345.562L158.004 347.482C157.812 347.578 157.332 347.674 157.14 347.962C157.812 349.113 158.292 349.497 159.156 351.129C160.404 353.145 159.732 351.801 160.884 354.489C164.148 361.977 163.764 367.065 174.708 373.593Z" fill="#B7ACA5"/>
<path fill-rule="evenodd" clip-rule="evenodd" d="M101.271 421.208C102.135 421.976 106.454 424.472 107.99 427.352C100.887 427.448 104.439 425.24 98.7747 429.176L108.374 428.216C105.015 435.223 104.055 432.728 99.1587 437.143L104.919 442.807C108.086 445.687 108.566 442.999 106.646 448.759L93.8789 445.879C98.2948 456.631 107.03 455.959 107.798 461.335C107.894 461.527 107.894 462.007 107.99 462.295C109.43 471.414 111.734 466.134 108.758 469.494C106.646 471.798 100.215 469.494 96.0868 468.534C98.1988 476.886 109.046 485.43 114.134 487.35C119.606 484.182 124.598 479.286 125.846 474.87C121.046 476.31 117.11 479.766 111.542 477.27C112.598 471.222 116.246 470.934 120.374 467.478C124.694 463.83 126.998 460.759 127.766 455.767C121.238 459.031 118.742 460.471 111.83 456.919C114.038 449.431 126.614 449.047 128.342 437.911C122.006 439.639 122.39 441.175 114.71 439.447C114.326 433.975 114.614 435.703 118.838 432.632L125.078 427.448C125.174 426.968 125.654 426.872 125.846 426.584C124.118 422.552 124.598 425.336 120.95 422.264C114.998 417.368 124.598 417.08 127.382 410.552C127.094 410.456 126.614 410.36 126.422 410.264C126.23 410.168 125.75 409.976 125.462 409.88C121.526 407.864 123.158 409.496 121.046 406.616C122.006 412.184 120.95 413.048 115.67 413.336V405.272L108.278 404.312C107.318 409.112 107.414 407.864 107.99 413.432C105.783 414.488 105.111 414.968 103.671 416.216C104.343 418.328 104.151 417.368 104.919 418.808C105.015 418.904 106.07 420.248 107.03 422.36L101.271 421.208Z" fill="#3A444B"/>
<path fill-rule="evenodd" clip-rule="evenodd" d="M236.72 95.9704C239.888 98.8503 236.144 96.4504 241.616 99.0423C244.4 100.386 243.344 99.8103 245.744 100.578C238.736 106.914 205.329 102.882 202.354 101.25C206.385 99.1383 211.473 98.7543 215.793 95.9704C221.169 95.9704 223.377 94.5304 226.449 94.5304C231.441 94.5304 231.057 97.1224 236.72 95.9704ZM426.122 116.994C416.906 116.898 406.827 118.05 398.091 117.282C387.915 116.418 382.827 115.746 372.076 116.61C369.292 114.402 363.052 113.538 358.732 113.922C357.004 111.042 354.988 112.194 350.285 112.482L327.533 110.562C323.597 109.602 325.901 110.466 323.789 109.218C325.709 106.338 324.269 107.874 327.533 106.434L340.781 104.994C345.389 104.802 354.412 106.626 357.964 103.938C347.021 101.73 328.397 105.09 321.773 102.21L282.127 101.826C276.079 102.114 269.551 103.842 264.847 101.25C267.823 95.7784 271.471 97.6983 277.519 95.2984C293.454 88.8666 312.558 97.2184 323.021 87.1387C333.101 86.3707 341.549 80.6109 350.669 78.787C358.924 77.155 363.532 79.363 372.94 73.4112C384.267 66.1154 389.259 71.5872 405.771 61.8915C414.506 56.8037 415.85 48.068 431.402 52.0999L432.842 47.972L432.65 39.1403C410.378 36.7404 379.372 37.0284 356.812 37.7964C332.333 38.7563 304.782 36.1644 280.303 35.6844C272.335 40.8683 153.299 33.2845 128.82 34.7245C98.293 36.4524 92.1492 34.1485 70.166 35.0125C61.9103 35.3004 42.2309 53.4438 35.0312 59.4916C28.6954 64.7715 24.7595 69.3793 19.4797 74.4671L2.48828 89.2506C9.11206 89.0586 7.00013 91.0746 12.4719 88.8666C20.7277 85.6027 29.0794 84.7388 36.9511 90.5946C42.9029 95.0104 40.119 95.4904 43.4789 100.386L47.4148 97.6983C38.7751 101.154 45.3988 98.7543 43.4789 97.2184C46.4548 95.2984 48.9507 92.6105 51.8306 91.0746C54.7105 89.6346 58.7424 88.1947 62.1983 87.0427C73.6219 85.4108 82.8376 86.7547 90.0373 95.8744C92.5332 98.9463 93.8772 101.634 95.5091 104.034C115.476 102.978 107.605 107.106 119.508 112.098L118.452 115.938C133.716 113.25 140.532 109.314 152.243 119.202C157.811 123.905 157.139 128.033 160.499 130.817C162.611 132.545 164.243 132.449 166.931 133.505C172.115 135.617 169.331 135.041 173.363 137.249L174.706 142.049C176.338 144.353 175.474 143.105 177.586 144.641C177.874 144.833 179.89 145.985 179.986 146.081C184.69 149.249 182.194 145.697 184.018 150.401L183.346 157.216L185.266 157.312L184.498 150.401C192.658 150.113 199.57 149.345 207.441 149.153C215.889 148.865 225.585 150.305 231.633 150.305C238.064 150.305 246.416 148.961 255.344 149.633C263.407 150.305 270.319 151.553 279.343 151.265C279.055 156.544 279.823 157.408 280.495 161.728L260.432 161.152C265.135 164.8 276.655 164.8 281.167 161.248L281.935 151.745C301.134 148.961 393.579 152.129 422.282 151.361C436.106 150.977 429.674 149.729 431.594 137.537C432.842 129.473 433.034 123.905 433.13 114.498L426.122 116.994Z" fill="#C57A7E"/>
<path fill-rule="evenodd" clip-rule="evenodd" d="M154.166 281.534C141.206 283.646 98.7756 281.726 86.2 281.918C67.0966 282.11 66.6167 277.598 46.0734 297.182C36.7617 305.917 26.586 313.693 16.6984 323.293L0.378906 337.212L45.4014 378.203C58.7449 371.483 66.9047 382.619 71.8965 371.963V370.907H74.1044C88.6959 359.291 70.0725 360.443 79.2882 353.82C86.392 334.62 74.9684 354.492 84.0881 329.82C85.528 326.077 87.256 325.021 88.8879 324.061L93.9757 347.484C93.4958 351.612 94.2637 345.276 92.8238 350.748C97.7196 349.788 99.6395 347.004 105.207 345.564C120.759 341.628 125.079 328.956 135.35 321.085C137.942 319.165 136.598 320.029 138.23 319.357C139.862 316.477 137.942 318.973 140.822 315.901C140.918 315.805 143.606 312.829 146.87 311.101C150.518 309.373 154.742 308.893 155.03 308.701L154.166 281.534ZM344.527 313.981C346.447 317.053 348.943 318.109 353.647 324.445C365.935 340.956 357.679 340.764 354.511 342.012C351.823 343.068 354.223 341.532 351.055 343.548C346.447 346.428 348.175 347.868 340.975 347.196C335.12 351.132 325.712 348.924 318.704 352.764L366.895 356.7C368.718 365.819 366.991 371.867 366.895 380.219C372.654 377.339 378.99 374.747 386.286 377.147C389.646 378.395 391.662 379.835 393.87 381.563C398.573 385.211 397.613 385.787 403.949 385.307C419.213 382.043 415.085 384.731 426.22 388.378C424.973 374.459 412.397 346.524 415.085 336.924C418.349 325.405 429.004 295.454 429.292 284.99L412.973 284.702L408.173 289.406L344.527 313.981ZM209.94 340.38C210.804 333.564 215.412 330.396 216.852 324.829C222.035 320.029 225.875 308.221 239.411 301.021C250.93 294.878 257.458 290.27 274.066 288.83C303.249 286.334 314.384 289.982 336.176 305.821C343.471 312.829 344.335 313.693 344.527 313.981C344.527 313.981 345.007 313.789 345.199 313.597C348.463 309.853 359.119 304.669 362.575 303.421C389.166 293.918 380.526 298.909 412.973 284.702L370.158 283.838L307.473 283.55C297.009 283.454 288.081 282.11 276.754 282.398C260.434 282.494 245.747 283.646 230.195 283.55C221.939 283.55 214.548 282.974 206.196 283.358C200.628 283.55 189.205 285.278 186.133 281.246C180.661 283.934 162.805 281.246 154.166 281.534C155.798 289.31 154.454 293.246 154.646 299.485C154.742 301.405 155.126 303.133 155.414 305.629C155.51 306.685 154.454 307.933 155.318 309.277C155.798 310.045 156.278 310.717 156.758 311.485C163.573 321.181 176.245 330.876 190.164 345.084L209.94 340.38Z" fill="#E59B8B"/>
<path fill-rule="evenodd" clip-rule="evenodd" d="M185.268 157.315C210.803 157.219 233.938 161.155 260.433 161.155L280.497 161.731C279.825 157.411 279.057 156.547 279.345 151.267C270.321 151.555 263.409 150.307 255.346 149.635C246.418 148.963 238.066 150.307 231.634 150.307C225.587 150.307 215.891 148.867 207.443 149.155C199.571 149.347 192.66 150.115 184.5 150.403L185.268 157.315Z" fill="#865B59"/>
<path fill-rule="evenodd" clip-rule="evenodd" d="M185.266 272.509L186.13 281.245C189.201 285.277 200.625 283.549 206.193 283.357C214.545 282.973 221.936 283.549 230.192 283.549C245.744 283.645 260.431 282.493 276.751 282.397V276.061L260.815 273.661C247.856 273.277 234.224 273.277 222.032 272.413C208.977 271.453 197.937 273.373 185.266 272.509Z" fill="#8D625B"/>
<path fill-rule="evenodd" clip-rule="evenodd" d="M106.74 148.768C112.02 148.192 117.876 148 123.54 148C129.78 148 134.003 149.728 140.435 149.248C145.811 148.864 149.075 149.728 154.163 149.632C158.867 149.632 161.843 148.672 166.834 148.672C162.131 146.752 161.075 147.52 155.507 147.52C154.067 144.736 153.011 133.888 139.475 133.024C131.316 132.448 131.124 135.904 126.708 135.328C124.116 134.944 120.372 133.024 114.804 132.544L114.708 126.305C113.46 131.105 105.3 131.105 96.4688 137.728L109.908 144.16C108.756 146.752 108.18 147.136 106.74 148.768Z" fill="#BD616C"/>
<path fill-rule="evenodd" clip-rule="evenodd" d="M125.172 700.849C130.644 699.985 131.316 698.257 135.348 700.177C138.42 701.713 138.036 704.017 145.524 703.153C141.3 700.561 140.436 698.737 134.292 695.953C135.828 688.177 135.924 696.337 137.748 687.025C138.228 684.53 145.908 678.866 158.771 682.13C159.635 686.833 159.155 683.954 155.219 687.889C171.827 688.177 164.243 691.537 169.811 692.785C176.147 683.858 167.315 690.289 163.283 677.234C163.283 677.234 165.491 674.546 165.971 674.066L164.339 669.938C167.987 671.57 165.491 669.746 168.083 671.858L175.667 669.266C173.267 664.274 170.963 664.37 168.467 657.938C172.595 659.57 170.579 657.938 173.843 661.682C176.147 664.466 174.611 664.178 177.971 666.002C181.234 664.946 182.578 663.794 184.21 660.338C179.794 657.362 177.491 650.931 169.715 653.139L164.435 656.114C160.307 650.931 164.915 652.755 160.787 651.891L160.403 674.162C153.395 674.546 155.891 672.05 157.907 676.946C151.283 676.274 146.772 677.714 143.22 677.234C137.172 676.466 143.316 675.89 131.412 675.89C131.124 706.897 123.636 689.233 125.172 700.849Z" fill="#EDDCCC"/>
<path fill-rule="evenodd" clip-rule="evenodd" d="M186.994 518.644L185.938 660.815C185.842 663.791 185.938 666.671 185.746 669.455C185.362 675.791 186.13 673.967 183.922 673.487C184.978 675.695 187.954 681.742 185.266 684.43L186.322 698.35C196.977 698.83 198.225 696.814 203.985 704.782C208.017 710.445 204.369 706.606 210.033 710.829C216.369 715.437 211.569 712.173 215.025 719.085C235.28 718.701 244.496 721.197 263.503 723.789C261.199 717.261 260.239 710.829 257.743 704.302C255.919 699.214 250.544 692.014 252.848 688.27C256.303 690.958 256.687 694.03 260.239 696.718C257.647 682.702 249.584 670.799 248.048 665.423C256.399 667.823 261.391 688.558 265.999 698.35C266.287 689.422 266.095 680.398 266.863 671.375C267.535 662.351 270.511 655.343 272.623 648.336L272.527 527.86C272.911 525.94 272.911 525.844 273.007 524.02C273.103 521.908 272.911 518.932 272.815 516.724L280.591 517.108C280.207 516.916 279.727 516.82 279.343 516.724L276.847 515.956C276.367 515.956 276.079 515.86 275.599 515.86L260.815 515.956C250.736 515.476 210.033 515.668 204.657 517.78L186.994 518.644Z" fill="#7E6163"/>
<path fill-rule="evenodd" clip-rule="evenodd" d="M297.198 655.44C300.654 657.551 300.078 653.616 298.254 659.855C298.158 660.047 295.759 663.695 295.567 663.983C293.455 667.151 291.727 669.167 291.055 673.007C292.591 675.695 295.183 672.911 298.35 678.575C302.958 686.83 297.102 683.087 297.486 687.022C303.15 684.623 306.51 677.423 309.678 677.423C313.038 677.519 308.526 673.967 311.886 678.575C316.302 676.367 313.71 679.439 315.534 674.543C314.19 680.591 315.63 678.959 317.742 681.263C319.278 675.023 316.11 678.959 320.814 676.847C320.526 677.039 321.294 683.375 319.182 676.175C317.934 671.951 318.51 677.231 319.47 674.063C323.118 660.815 321.486 668.879 321.486 651.216C294.895 651.216 302.958 650.352 297.198 655.44Z" fill="#F2DECA"/>
<path fill-rule="evenodd" clip-rule="evenodd" d="M196.211 5.54261L195.54 4.96663C194.292 13.0304 197.459 25.7979 201.971 29.3498C204.563 31.3657 225.011 34.6296 227.506 34.6296C229.234 23.398 230.002 27.7179 233.938 18.2142L240.658 0.646778L227.314 0.550781C225.203 2.75871 225.97 1.03077 223.859 4.48665C218.963 12.6464 230.002 24.934 208.883 24.55C205.811 17.6382 196.979 11.9744 200.051 6.31059L196.211 5.54261Z" fill="#76595B"/>
<path fill-rule="evenodd" clip-rule="evenodd" d="M106.741 148.768C102.421 151.744 96.7575 152.224 91.0937 152.128L89.7497 149.056H79.958C76.0222 152.224 78.0381 150.688 77.0781 153.472C84.2779 157.408 159.635 156.352 174.227 156.736L183.347 157.216L184.019 150.4C174.227 150.592 146.868 152.224 140.436 149.248C134.004 149.728 129.78 148 123.541 148C117.877 148 112.021 148.192 106.741 148.768Z" fill="#F4DACB"/>
<path fill-rule="evenodd" clip-rule="evenodd" d="M187.859 402.296C191.891 404.696 201.875 402.488 207.539 402.584C215.314 402.776 222.034 403.928 230.194 404.216C238.066 404.504 245.073 403.448 252.849 403.544L274.832 403.448L275.12 398.264C274.832 396.344 259.473 397.304 254.193 395.672C244.017 395 191.987 395.288 188.147 397.208L187.859 402.296Z" fill="#776667"/>
<path fill-rule="evenodd" clip-rule="evenodd" d="M306.415 381.66C314.767 383.004 324.463 385.307 332.91 381.276C329.742 376.38 329.934 376.86 324.271 373.98C317.647 370.62 299.215 358.044 295.472 352.477C288.56 354.109 294.512 361.884 295.951 363.228C294.32 367.452 296.143 363.996 294.128 366.204C293.936 366.396 293.648 366.78 293.456 366.876C293.264 367.068 292.88 367.356 292.688 367.452C292.592 367.548 292.208 367.74 292.016 367.932C299.311 371.196 293.744 370.716 297.967 376.188C301.135 380.316 303.439 378.108 306.415 381.66Z" fill="#B7ACA5"/>
<path fill-rule="evenodd" clip-rule="evenodd" d="M337.903 713.23C335.215 722.158 333.008 716.494 331.184 725.902C332.72 730.894 331.472 729.07 336.751 730.702C344.143 733.006 356.527 733.294 363.343 730.606C364.014 726.574 364.398 723.694 362.287 720.718C361.999 720.526 361.711 720.046 361.519 719.854C350.767 706.607 347.311 708.911 337.903 713.23Z" fill="#A95C51"/>
<path fill-rule="evenodd" clip-rule="evenodd" d="M29.8477 246.973L34.5515 246.59C49.431 247.453 48.567 249.661 64.7905 246.973C69.2063 242.942 79.382 245.15 95.7014 241.598C97.7174 241.214 99.5413 241.022 101.173 240.734L106.741 238.622C103.765 232.286 88.3097 232.862 76.7901 231.998C70.8383 231.614 69.2063 231.71 65.8464 229.214C72.9502 225.758 86.1018 232.382 95.3174 230.846C109.237 228.734 111.829 231.134 124.596 233.342C131.22 233.822 141.588 234.59 148.02 232.574C152.628 231.134 150.9 230.654 154.739 229.694C160.787 228.254 174.803 232.766 185.458 230.078C199.954 224.606 203.986 229.31 218.193 229.406C224.625 229.502 228.945 229.406 235.569 229.694C242.192 230.078 245.552 229.022 247.088 223.454C239.313 221.918 234.033 224.894 225.873 221.246L236.913 218.558C247.952 217.598 261.2 221.438 276.079 217.598C307.374 209.535 292.111 215.583 310.254 215.007C317.55 214.815 318.606 213.471 319.374 210.591L282.607 205.503C271.087 207.999 261.872 199.743 254.768 195.327L244.976 190.623C226.929 179.104 240.273 188.799 230.193 183.52C210.514 174.304 222.705 179.776 206.194 180.64C201.106 171.904 199.474 174.496 191.218 170.848C188.722 168.928 191.602 167.008 181.907 161.632C174.707 160.384 175.379 162.976 174.227 156.737C159.635 156.353 84.2778 157.409 77.0781 153.473C72.1822 157.793 69.4943 161.536 66.1344 167.68C60.9506 165.76 59.0307 167.968 56.9187 162.592C55.2868 158.56 57.7827 155.873 59.2227 153.569L34.6475 153.761C33.6875 158.464 34.4555 161.344 33.6875 164.992C32.4396 171.712 31.0956 166.528 31.2876 174.496C31.5756 183.616 33.4955 216.927 32.0556 223.262C30.2316 231.038 30.9996 238.238 29.8477 246.973Z" fill="#BC5D6B"/>
<path fill-rule="evenodd" clip-rule="evenodd" d="M196.211 5.54261L200.051 6.31059C196.979 11.9744 205.811 17.6382 208.883 24.55C230.002 24.934 218.962 12.6464 223.858 4.48665C225.97 1.03077 225.202 2.75871 227.314 0.550781C212.914 0.934768 200.723 2.66271 196.211 5.54261Z" fill="#7E6161"/>
<path fill-rule="evenodd" clip-rule="evenodd" d="M403.948 385.305L386.477 397.784L428.715 397.88L426.219 388.377C415.084 384.729 419.211 382.041 403.948 385.305Z" fill="#5B656B"/>
<path fill-rule="evenodd" clip-rule="evenodd" d="M297.488 687.023C297.104 683.087 302.96 686.831 298.352 678.576C295.184 672.912 292.593 675.696 291.057 673.008C282.033 678.576 282.705 700.943 282.129 712.366C284.337 710.159 284.529 710.063 286.353 706.703L297.488 687.023Z" fill="#989388"/>
<path fill-rule="evenodd" clip-rule="evenodd" d="M45.3984 378.202C47.8944 382.618 62.2939 393.849 66.3257 394.905L68.1497 390.874C68.0537 386.074 67.5737 383.578 70.1656 378.874C73.5255 380.122 72.3735 378.202 73.3335 383.866L76.5014 383.962L79.2853 377.338L74.3895 375.706L74.1015 370.906H71.8935V371.962C66.9017 382.618 58.742 371.482 45.3984 378.202Z" fill="#848485"/>
<path fill-rule="evenodd" clip-rule="evenodd" d="M181.717 448.761C176.725 452.793 178.453 450.777 173.461 451.929L181.717 455.961C179.605 459.704 176.725 460.952 176.341 461.24L184.213 465.272C181.525 473.624 181.333 463.448 178.549 471.896C182.869 471.8 179.605 474.776 187.764 476.024C187.38 466.904 187.188 474.968 186.516 471.8C185.269 466.136 187.572 470.84 187.668 465.464L187.092 461.72C187.764 457.4 191.22 448.281 195.54 446.649C200.052 452.697 199.956 455.865 198.516 464.792C198.9 464.504 199.284 463.448 199.38 463.736C199.86 464.408 205.428 454.809 206.388 443.961C195.252 444.537 187.668 448.665 181.717 448.761Z" fill="#54636A"/>
<path fill-rule="evenodd" clip-rule="evenodd" d="M147.157 403.931L165.492 404.027L166.932 404.699C171.444 401.339 181.524 402.875 187.859 402.299L188.147 397.211C181.236 396.635 170.676 396.539 163.668 396.443C158.1 396.443 146.293 395.483 143.797 397.499L147.157 403.931Z" fill="#ECDED2"/>
<path fill-rule="evenodd" clip-rule="evenodd" d="M57.2088 712.75C55.8649 706.798 56.0569 700.75 57.0168 694.702C58.3608 686.063 61.5287 685.199 59.5128 680.879C49.5291 686.927 51.161 717.934 54.1369 723.693L60.8567 724.269C61.2407 718.702 61.1447 715.054 62.8726 709.966C64.6006 704.974 67.1925 702.286 64.8886 697.87C60.5687 702.19 59.4168 705.454 57.2088 712.75Z" fill="#36352B"/>
<path fill-rule="evenodd" clip-rule="evenodd" d="M279.729 665.135C278.098 663.12 282.033 663.216 278.194 663.6C273.202 671.759 278.194 666.671 274.162 667.919C271.378 664.847 273.394 667.343 272.242 662.352C268.306 663.024 271.378 702.094 272.818 706.03C275.602 701.806 279.153 692.687 279.441 687.887L278.194 670.415C278.482 663.024 278.098 667.343 279.729 665.135Z" fill="#89847C"/>
<path fill-rule="evenodd" clip-rule="evenodd" d="M105.301 405.081L108.276 404.313L115.668 405.273L120.948 404.889C124.692 403.545 127.764 399.994 129.108 394.426L122.004 394.906L95.7969 395.866C97.4288 400.666 100.405 402.873 105.301 405.081Z" fill="#ECDED2"/>
<path fill-rule="evenodd" clip-rule="evenodd" d="M215.795 95.9712C211.475 98.7551 206.387 99.1391 202.355 101.251C205.331 102.883 238.738 106.915 245.746 100.579C243.346 99.8111 244.402 100.387 241.618 99.0431C236.146 96.4512 239.89 98.8511 236.722 95.9712C231.058 97.1232 231.442 94.5312 226.451 94.5312C223.379 94.5312 221.171 95.9712 215.795 95.9712Z" fill="#DA9789"/>
<path fill-rule="evenodd" clip-rule="evenodd" d="M449.737 473.336C453.001 471.8 449.737 473.912 453.577 471.224C454.825 470.36 454.825 470.072 455.689 469.304C452.617 466.424 452.809 470.264 455.401 466.616C456.745 464.792 456.841 465.752 458.761 464.696C456.457 456.249 455.977 459.321 460.393 452.697C457.897 448.185 457.033 448.953 453.577 445.785L445.609 439.449C445.609 441.369 446.281 449.241 446.569 450.201C447.433 453.465 448.681 452.985 449.929 458.169C450.025 457.977 452.713 455.289 449.353 458.169C449.257 458.361 448.873 458.649 448.777 458.745L446.953 460.76C448.393 461.624 448.873 461.336 449.545 463.256C451.945 470.456 449.833 464.312 449.161 466.808C448.105 470.84 447.817 464.12 448.393 469.88C448.393 470.744 449.353 472.28 449.737 473.336Z" fill="#54636A"/>
<path fill-rule="evenodd" clip-rule="evenodd" d="M144.181 414.681C152.053 411.225 144.469 409.306 151.477 407.098C158.485 416.121 150.325 421.977 160.885 424.089C163.477 419.769 163.861 410.457 165.492 404.026L147.157 403.93C145.333 406.618 144.661 406.33 141.781 407.962L144.181 414.681Z" fill="#848A8C"/>
<path fill-rule="evenodd" clip-rule="evenodd" d="M79.2852 353.818C87.0609 354.49 81.3011 354.682 85.8129 346.426L87.5409 343.93C89.7488 346.618 91.6687 346.618 92.8207 350.746C94.2606 345.274 93.4927 351.61 93.9727 347.482L88.8848 324.059C87.2529 325.019 85.5249 326.075 84.085 329.818C74.9653 354.49 86.3889 334.618 79.2852 353.818Z" fill="#291919"/>
<path fill-rule="evenodd" clip-rule="evenodd" d="M168.082 671.858C173.458 678.961 178.738 688.369 181.906 697.969C182.29 698.257 183.921 699.025 184.113 699.025C186.705 699.121 184.209 699.601 186.321 698.353L185.265 684.433C181.714 678.961 178.834 673.297 175.666 669.266L168.082 671.858Z" fill="#989388"/>
<path fill-rule="evenodd" clip-rule="evenodd" d="M364.014 245.437C373.134 248.029 363.15 252.733 362.574 255.709C367.086 258.781 373.23 254.173 376.878 252.061C381.774 249.373 387.533 247.453 387.533 240.349C383.214 240.829 379.086 245.341 373.422 243.517C367.758 241.693 369.87 240.157 361.902 239.773C362.958 243.421 363.054 243.037 364.014 245.437Z" fill="#543A43"/>
<path fill-rule="evenodd" clip-rule="evenodd" d="M440.425 317.052C441.769 318.492 440.713 322.428 443.497 323.676C445.129 320.988 444.649 314.844 444.841 311.964C440.425 310.332 433.993 307.836 429.77 307.164L437.449 312.348C438.121 318.3 431.017 310.332 430.825 315.996C430.729 322.044 436.969 319.932 436.969 319.932L440.425 317.052Z" fill="#464748"/>
<path fill-rule="evenodd" clip-rule="evenodd" d="M201.875 296.221C203.891 298.909 205.331 297.373 205.811 299.677C207.059 302.749 203.987 301.309 203.987 305.149C209.843 305.245 209.555 304.573 210.995 303.325C212.051 302.365 213.587 304.381 216.85 309.085C219.058 303.517 215.699 300.733 215.699 294.781C213.491 292.477 212.627 295.261 210.419 296.221C207.923 297.277 204.179 296.605 201.875 296.221Z" fill="#6E5D63"/>
<path fill-rule="evenodd" clip-rule="evenodd" d="M35.418 409.882C38.4899 408.634 42.5217 402.586 56.4413 407.29C56.5373 413.626 57.4012 408.538 53.2734 413.05L59.3212 419.962C64.217 418.906 64.313 418.618 66.9049 415.45C66.4249 415.354 64.889 415.258 64.505 415.066C64.313 415.066 63.833 414.97 63.545 414.874L60.4731 413.242C63.161 405.658 62.873 413.53 65.369 405.082L35.514 405.178L35.418 409.882Z" fill="#7C8489"/>
<path fill-rule="evenodd" clip-rule="evenodd" d="M232.784 363.899C230.576 358.14 227.216 357.564 222.608 354.108C218.384 350.94 216.08 348.06 210.32 347.004C210.896 351.516 210.416 349.788 212.912 353.148C214.448 355.068 216.08 357.468 218.192 358.812C221.168 360.827 230.192 363.323 232.784 363.899Z" fill="#B7ACA5"/>
<path fill-rule="evenodd" clip-rule="evenodd" d="M103.86 517.686H109.812L107.508 514.998C114.804 511.158 119.892 508.086 123.251 498.391L111.444 500.311C114.228 503.286 112.212 501.463 116.052 503.958C112.212 511.638 109.62 510.774 99.1562 511.926L103.86 517.686Z" fill="#323D44"/>
<path fill-rule="evenodd" clip-rule="evenodd" d="M122.389 725.616L125.845 722.352L121.237 715.824L115.574 716.4C110.486 717.744 109.43 718.608 108.758 724.464L122.389 725.616Z" fill="#4C443B"/>
<path fill-rule="evenodd" clip-rule="evenodd" d="M37.9102 698.641C43.67 711.408 42.134 708.336 45.0139 719.664C46.8379 726.96 45.3019 722.832 48.8538 723.984C51.0617 718.8 49.2378 713.232 47.0298 708.336C42.71 698.737 42.998 699.121 37.9102 698.641Z" fill="#36352B"/>
<path fill-rule="evenodd" clip-rule="evenodd" d="M165.972 674.065C166.74 674.833 167.028 674.929 168.18 676.561C168.852 677.521 169.236 678.097 169.812 679.153L177.299 698.257C179.123 700.464 177.875 699.217 180.851 700.272C182.867 698.449 181.523 700.752 181.907 697.969C178.739 688.369 173.46 678.961 168.084 671.857C165.492 669.746 167.988 671.569 164.34 669.938L165.972 674.065Z" fill="#36352B"/>
<path fill-rule="evenodd" clip-rule="evenodd" d="M99.5417 410.072C95.3179 409.88 96.0859 408.632 96.0859 412.376C98.1978 414.488 97.0458 411.032 97.4298 414.392C97.5258 414.776 97.1418 417.176 97.0458 417.656C99.9257 419.192 99.7337 418.232 101.27 421.208L107.029 422.36C106.07 420.248 105.014 418.904 104.918 418.808C104.15 417.368 104.342 418.328 103.67 416.216C105.11 414.968 105.782 414.488 107.989 413.432C107.413 407.864 107.317 409.112 108.277 404.312L105.302 405.08C106.454 410.072 104.342 410.936 99.5417 410.072Z" fill="#7C8489"/>
<path fill-rule="evenodd" clip-rule="evenodd" d="M455.69 469.303C459.338 467.383 466.154 460.951 467.978 457.207C464.906 454.135 464.426 453.559 460.394 452.695C455.978 459.319 456.458 456.247 458.762 464.695C456.842 465.751 456.746 464.791 455.402 466.615C452.81 470.263 452.618 466.423 455.69 469.303Z" fill="#3A444B"/>
<path fill-rule="evenodd" clip-rule="evenodd" d="M175.669 669.265C178.836 673.297 181.716 678.961 185.268 684.433C187.956 681.745 184.98 675.697 183.924 673.489C178.74 670.897 180.66 671.089 177.972 666.001C174.613 664.177 176.148 664.465 173.845 661.681C170.581 657.938 172.597 659.569 168.469 657.938C170.965 664.369 173.269 664.273 175.669 669.265Z" fill="#36352B"/>
<path fill-rule="evenodd" clip-rule="evenodd" d="M98.293 488.98C101.077 496.276 103.285 493.012 106.453 499.444C111.061 496.66 110.869 498.388 111.733 491.764C108.661 490.324 102.997 489.364 98.293 488.98Z" fill="#334146"/>
<path fill-rule="evenodd" clip-rule="evenodd" d="M99.1568 437.145C104.053 432.729 105.013 435.225 108.372 428.217L98.7728 429.177C93.685 428.409 96.1809 427.833 91.957 425.625C93.589 430.521 94.6449 429.273 97.4288 433.881L98.7728 436.377C98.7728 436.185 99.0608 436.857 99.1568 437.145Z" fill="#737C83"/>
<path fill-rule="evenodd" clip-rule="evenodd" d="M177.973 666C180.661 671.088 178.741 670.896 183.924 673.487C186.132 673.967 185.364 675.791 185.748 669.456C185.94 666.672 185.844 663.792 185.94 660.816L184.212 660.336C182.581 663.792 181.237 664.944 177.973 666Z" fill="#A5968A"/>
<path fill-rule="evenodd" clip-rule="evenodd" d="M68.1517 390.875L73.9115 386.075C74.0075 386.075 76.5034 383.963 76.5034 383.963L73.3355 383.867C72.3756 378.203 73.5275 380.123 70.1676 378.875C67.5757 383.579 68.0557 386.075 68.1517 390.875Z" fill="#39464E"/>
<path fill-rule="evenodd" clip-rule="evenodd" d="M121.044 406.619L120.948 404.891L115.668 405.275V413.338C120.948 413.05 122.004 412.186 121.044 406.619Z" fill="#838993"/>
<path fill-rule="evenodd" clip-rule="evenodd" d="M287.217 672.05L280.785 671.762L282.225 681.169L287.217 672.05Z" fill="#989388"/>
<path fill-rule="evenodd" clip-rule="evenodd" d="M63.0642 427.64C60.7603 424.28 64.0242 424.664 55.4805 423.512C56.6324 425.528 57.7844 427.832 59.5123 430.423L63.0642 427.64Z" fill="#737C83"/>
<path fill-rule="evenodd" clip-rule="evenodd" d="M97.0455 417.657C97.1415 417.177 97.5255 414.777 97.4295 414.393C97.0455 411.033 98.1975 414.489 96.0856 412.377C96.0856 408.634 95.3176 409.881 99.5415 410.073L91.0938 407.77C92.1497 409.881 92.6297 410.937 93.5897 412.761L96.2776 416.793C96.4696 416.985 96.7576 417.369 97.0455 417.657Z" fill="#424D55"/>
<path fill-rule="evenodd" clip-rule="evenodd" d="M169.81 701.518L173.362 701.806L173.074 698.735L166.066 694.223C167.218 698.063 167.986 698.447 169.81 701.518Z" fill="#4A3533"/>
<path fill-rule="evenodd" clip-rule="evenodd" d="M77.2695 395.097L79.5735 394.521L78.9015 397.209C81.1094 395.385 79.1895 398.649 81.8774 394.041C83.1253 391.929 82.8373 391.737 83.3173 389.625C79.4775 390.969 79.0935 391.833 77.2695 395.097Z" fill="#5B656B"/>
<path fill-rule="evenodd" clip-rule="evenodd" d="M79.957 149.056H89.7487L87.3488 145.312L79.957 149.056Z" fill="#96877D"/>
<path fill-rule="evenodd" clip-rule="evenodd" d="M345.199 283.743L429.293 284.991L411.821 343.933L427.949 394.907L367.087 391.547L374.958 356.508L359.887 330.397L342.799 310.91L307.473 283.551L345.199 283.743Z" fill="#E59B8B"/>
<path fill-rule="evenodd" clip-rule="evenodd" d="M132.277 282.972L154.261 281.82L172.02 282.972V308.507H132.277V282.972Z" fill="#E59B8B"/>
</svg>
